<?xml version="1.0" encoding="UTF-8"?>
<svg id="Layer_2" xmlns="http://www.w3.org/2000/svg" version="1.1" viewBox="0 0 417 417">
  <!-- Generator: Adobe Illustrator 29.5.0, SVG Export Plug-In . SVG Version: 2.1.0 Build 137)  -->
  <defs>
    <style>
      .st0 {
        fill: #6595ec;
      }

      .st1 {
        fill: #fff;
      }

      .st2 {
        fill: #6696ec;
      }
    </style>
  </defs>
  <g id="Layer_1-2">
    <g>
      <path class="st2" d="M361.1,144.6v65.8h-34.9v-59.9l-50.8-28c-1.7-2.4,15.3-25.9,15.9-30.8l57.3,31.9c2.3-4.4,1.7-7.8,4.5-12.5,10.8-18.4,39.6-14.4,44.6,6.3,5.3,21.8-17.4,38.4-36.6,27.2h0Z"/>
      <path class="st0" d="M219.5,48.9l56.9,32.9c-1.6,3.8-14.7,28.9-16.1,29.7-1.1.7-2.7.2-3.8-.4l-46-26.8-2.4-.6c-18,8.3-34.5,20.2-52.4,29-.9-4.8-17.5-28.6-15.9-30.8l56.8-32.5c-26.7-14-9-54.9,19.7-44.6,19.9,7.1,21.8,34.6,3.3,44.1h0Z"/>
      <path class="st0" d="M54.9,144.6c-22.5,13.6-48.8-12.7-33.4-34.8,13.9-19.9,45.2-9.1,44.8,14.9,7.9-3.2,53.2-33,57.7-32,1.6.4,14.5,25.4,16.2,29-16.6,10-33.4,20.1-50.4,28.9v59.9h-34.9v-65.8h0Z"/>
      <path class="st2" d="M89.8,287.8c16.4,10.5,33.7,20.1,50.8,29.5l-17.3,29.9-47.2-26.8c-4.5,0-22.4,14.1-25.2,12.4-6.5-11.2-13.8-22.3-19-34,0-.9.5-1.4,1-2,2.3-2.5,15.4-7.8,19.3-10.6,1-.7,1.9-1.4,2.7-2.3v-55.4h33.4c.1,0,1.5,1.4,1.5,1.5v57.9h0Z"/>
      <path class="st2" d="M361.1,228.4v56.9l23,12.6-19.1,35.2c-2.4,1.4-20.7-12.2-25.2-12.6l-47.1,26.7-2.3-1.6c-1.2-4.4-15.7-25.5-15-27.7l50.8-30.1v-59.4h34.9Z"/>
      <path class="st0" d="M187.6,384.1l-47.8-27.5,16.4-29.4,51.8,28.9,49.4-28.3,2.9-.5,16,29.3c-15.6,9.7-31.6,19.1-47.8,27.5v27.9h-40.9v-27.9h0Z"/>
      <path class="st2" d="M312.2,228.4v51.9l-44.3,24.9c-2.3-3.5-16-25-15.4-27.2l14.5-15.6,19.8,10.9c1.4-1.9,7.6-11.2,6.5-12.9-.7-1-18.3-8.7-18.8-10.6l5.9-21.4h31.9,0Z"/>
      <path class="st2" d="M135.7,228.4c-1.1,5.2,5.9,17.5,4.9,21.2-.9,3.3-16.6,9-17.7,10.8-1.2,2,4.5,10.8,6.3,12.7l19.9-10.9c3.6,6.5,9.4,10.5,14.4,15.7l-14.9,27.2c-15.4-7.3-30.1-16.7-44.8-25.4v-51.4h31.9Z"/>
      <path class="st2" d="M312.2,210.5h-31.4c-2.6-6.3-3.1-13.9-6.3-20.3.6-3.1,19-9.6,18.7-12.9,0-1.1-5.8-10.4-6.5-10.6-2.5-.6-16.1,10.7-19.6,9.8-1.9-.5-6.2-6.9-8.2-8.9-3-3.1-7.7-3.4-5.8-8.7.9-2.4,13-23.2,14.2-23.8.7-.4,1.3-.4,2,0l42.9,25v50.4h0Z"/>
      <path class="st0" d="M103.8,160.1c14-9.3,28.8-17.4,43.4-25.4l2,1,14.3,24.7c.4.9.2,1.5-.3,2.3-.4.5-7.9,6.8-9.6,8.4-1.8,1.8-2.9,5.4-5.5,5.6-3.9-.3-18-11.6-20.3-10-.5.4-4.2,10.1-6.1,11.4l18.8,10.6-4.9,21.8h-31.9v-50.4h0Z"/>
      <path class="st2" d="M215.5,292.3c7.2-.5,14.2-3.9,20.9-4.6,2.3,3.8,15.7,24.1,14.9,26.8l-42.8,25.2-44.9-24.6,15.1-27.9c14.5,4,26.6,3.4,23.9,22.4-.4,2.7-2.5,4.1-2.1,6.8.1.7,3.2,10.1,3.6,10.5,2.5,3.4,9.2,2,10.2-1.6.7-2.5-.6-6.2.7-8.3,1.5-2.4,6.7-3.3,7.4-9.6.9-7.8-6.1-9.2-7-15.4h0Z"/>
      <path class="st2" d="M218.6,147.5c-.4-.6-.4-7.2,0-8.2,1-2.8,9.1-1.6,7.9-9.1-.7-3.9-4.8-3.4-6.4-5.6-3.9-5.2-.6-16-13.9-13.9-7.7,1.2-5.9,9.3-8.1,12.9-.6.9-7.8,4.3-9.9,6-6.1,5.1-10,12.9-9.5,20.9l-14.9-25.4,41.5-24.4,4.4-.7,39.8,23.1,1.9,2.1c.6,2.2-12.9,23-14.9,26.8l-17.8-4.7h0Z"/>
      <path class="st0" d="M200.5,243.4c-7.4-2.7-11.9-9.3-10.9-17.4,1.7-14.1,20.8-19.2,27.7-30.2,3.8-6,.8-5.6.1-10.8-.4-3.5,0-7.2,1-10.5,9.1,2.8,14,12.6,11.3,21.8-3.2,10.9-29.8,22.3-30.3,28.6-.1,1.4,1.1,2.6,1.1,2.9v15.5h0Z"/>
      <path class="st0" d="M201.5,140.7c5.1.4,9.4,2.5,13.9-1-.3,11.1.5,22.4,0,33.5,0,2.4-.9,4.5-1.1,6.9-.2,4.3.8,10.1,0,14-.7,3.5-7.8,8.1-10.4,10.5-1.4-.9-1.4-1.9-1.5-3.4-1.3-12.2-.6-29.9-1-42.9-.2-5.8.2-11.7,0-17.5h0Z"/>
      <path class="st0" d="M199.3,163.8c.8,1.4.2,8.6-.3,10.8-30.5-12-18.4-53.3,13.9-48.8,2.3.3,11.1,3.5,10.5,6.3-.3,1.6-11.6,6.4-13.5,6.6-3.6.3-7-1.9-11.6-.7-8.5,2.2-10.2,16.2-4.7,22.2,1.4,1.5,5.5,3.3,5.8,3.7h0Z"/>
      <path class="st0" d="M213.5,257.9c-.5,1.7-7.3,6-9,7.5,1.3-12.5-2.3-26.2-1.1-38.5.6-6.1,6.6-7.3,10.5-11.4,1.6.7-.5,2.3-.5,2.5v39.9h0Z"/>
      <path class="st0" d="M202.5,293.3c-11.1-7.6-8-15.1.5-23,2.8-2.6,10.9-7.2,12.4-9.6,2.1-3.3.8-9,1.1-12.9,0-1.1-.6-3.3,1.5-2.5,3.8,1.5,7.1,10.1,6.3,14.2-1.7,8.8-24.2,16.4-23.5,23,.3,2.5,3.3,6.7,1.8,10.6Z"/>
      <path class="st0" d="M205.5,310.3v-26.4c0-.3-.9-.9-.8-1.8.2-1.8,6-5.5,7.8-6.6-.2,5.5.3,11,0,16.5-.1,2.5-.8,14.7-1.2,15.8-.6,1.7-4.1,2.4-5.9,2.6Z"/>
      <path class="st0" d="M213.2,115c1.7,1.6,2,6.5,3.2,8.7-4.9-1.5-9.9-.9-15-1-.9-6,6.6-12.5,11.7-7.7h0Z"/>
      <path class="st0" d="M214.2,310c2.2-2.5-.6-8.2.3-11.7,7.8,5.7,5.6,14.1-3.2,17.3-.7.3-8,2.3-7.8.2.1-1.7,9.1-3.9,10.7-5.8h0Z"/>
      <path class="st0" d="M211.5,319.2c2.4,11.3-9.2,5.9-5.6.9,1-1.4,4-.9,5.6-.9Z"/>
      <path class="st2" d="M198.4,147.5c-.2.2-4.7,1.3-4.9,1.1,0-2.9,2.6-5.1,4.5-7,.9.8.7,5.4.4,5.9Z"/>
    </g>
    <circle class="st1" cx="209.6" cy="129.8" r="1.1"/>
  </g>
</svg>